<svg width="26" height="26" viewBox="0 0 26 26" fill="none" xmlns="http://www.w3.org/2000/svg">
<path d="M13 0C20.1695 0 26 5.83063 26 13C26 20.1694 20.1694 26 13 26C5.83063 26 0 20.1694 0 13C0 5.83063 5.83063 0 13 0ZM13 1.73329C6.76749 1.73329 1.73305 6.76731 1.73305 13.0002C1.73305 15.1098 2.30827 17.0828 3.31286 18.7691C5.69289 16.1132 9.15636 14.4447 12.9999 14.4447C16.8477 14.4447 20.3078 16.1165 22.6869 18.7782C23.6941 17.0904 24.2667 15.1126 24.2667 13.0004C24.2667 6.76792 19.2329 1.73329 13 1.73329ZM13 2.59994C16.0212 2.59994 18.4889 5.06763 18.4889 8.08884C18.4889 11.1101 16.0212 13.5777 13 13.5777C9.97878 13.5777 7.5111 11.1101 7.5111 8.08884C7.5111 5.06763 9.97878 2.59994 13 2.59994Z" fill="#55B8FF"/>
</svg>
