<svg xmlns="http://www.w3.org/2000/svg" xmlns:xlink="http://www.w3.org/1999/xlink">
  <symbol viewBox="0 0 13 14" fill="none" id="email">
    <g>
      <path d="M7.41611 6.66666L14.0833 3.27144V1.78829C14.0833 1.61893 14.0833 1.48148 14.0833 1.48148H0.75C0.75 1.48148 0.750009 1.61893 0.750009 1.78829V3.29414L7.41611 6.66666Z" fill="#171E29"/>
      <path d="M7.53278 7.80425C7.495 7.82326 7.45555 7.83316 7.41667 7.83316C7.37833 7.83316 7.33889 7.82326 7.30111 7.80533L0.75 4.4661V11.8519C0.75 11.8519 0.874444 11.8519 1.02778 11.8519H13.8056C13.9583 11.8519 14.0833 11.8519 14.0833 11.8519V4.44446L7.53278 7.80425Z" fill="#171E29"/>
    </g>
  </symbol>
  <symbol id="user" width="13" height="14" viewBox="0 0 13 14" fill="#171e29">
    <path d="M6.87474 7.01782C3.64652 7.01782 1.02008 10.0195 1.02008 13.7089C1.02008 13.8694 1.13413 13.9998 1.27464 13.9998H12.4749C12.6154 13.9998 12.7294 13.8694 12.7294 13.7089C12.7294 10.0195 10.103 7.01782 6.87474 7.01782Z" />
    <path d="M6.87489 6.40011C8.42132 6.40011 9.67494 4.9674 9.67494 3.20006C9.67494 1.43271 8.42132 0 6.87489 0C5.32847 0 4.07484 1.43271 4.07484 3.20006C4.07484 4.9674 5.32847 6.40011 6.87489 6.40011Z" />
  </symbol>
  <symbol id="close" width="8" height="9" viewBox="0 0 8 9" fill="none" xmlns="http://www.w3.org/2000/svg">
    <path fill-rule="evenodd" clip-rule="evenodd" d="M2.31229 4.01006L0 1.69776L1.69776 0L4.01006 2.31229L6.22525 0.0970967L7.92302 1.79486L5.70782 4.01006L7.9229 6.22514L6.22514 7.9229L4.01006 5.70782L1.69788 8.02L0.000116683 6.32224L2.31229 4.01006Z" fill="#89919A"/>
  </symbol>
  <symbol id="arrow" width="10" height="7" viewBox="0 0 10 7" fill="none" xmlns="http://www.w3.org/2000/svg">
    <path fill-rule="evenodd" clip-rule="evenodd" d="M4.45754 6.33726L-1.94845e-07 1.87972L1.35084 0.335398L4.5028 3.48736L7.65476 0.335398L9.07 1.7955L4.61246 6.25304L4.57711 6.2177L4.45754 6.33726Z" fill="#171E29"/>
  </symbol>
  <svg id="user-big" width="26" height="26" viewBox="0 0 26 26" fill="none" xmlns="http://www.w3.org/2000/svg">
    <path d="M13 0C20.1695 0 26 5.83063 26 13C26 20.1694 20.1694 26 13 26C5.83063 26 0 20.1694 0 13C0 5.83063 5.83063 0 13 0ZM13 1.73329C6.76749 1.73329 1.73305 6.76731 1.73305 13.0002C1.73305 15.1098 2.30827 17.0828 3.31286 18.7691C5.69289 16.1132 9.15636 14.4447 12.9999 14.4447C16.8477 14.4447 20.3078 16.1165 22.6869 18.7782C23.6941 17.0904 24.2667 15.1126 24.2667 13.0004C24.2667 6.76792 19.2329 1.73329 13 1.73329ZM13 2.59994C16.0212 2.59994 18.4889 5.06763 18.4889 8.08884C18.4889 11.1101 16.0212 13.5777 13 13.5777C9.97878 13.5777 7.5111 11.1101 7.5111 8.08884C7.5111 5.06763 9.97878 2.59994 13 2.59994Z" fill="#55B8FF"/>
  </svg>
</svg>